<svg width="904" height="193" viewBox="0 0 904 193" fill="none" xmlns="http://www.w3.org/2000/svg">
<path d="M9.43262 190.21V142.839H36.9941V149.398H17.4454V161.257H36.9941V168.015H17.4454V183.319H36.9941V190.21H9.43262ZM64.2104 180.724L70.6114 177.887C71.2215 179.995 72.3383 181.607 73.9616 182.712C75.5734 183.827 77.6459 184.379 80.1672 184.379C82.5618 184.379 84.4496 183.739 85.866 182.469C87.2705 181.199 87.9727 179.499 87.9727 177.368C87.9727 174.585 85.5664 172.1 80.7425 169.925C80.0634 169.605 79.5454 169.362 79.1886 169.219C73.7428 166.668 70.1163 164.371 68.3089 162.306C66.5013 160.241 65.5917 157.724 65.5917 154.753C65.5917 150.889 66.962 147.764 69.6904 145.368C72.4189 142.971 76.0111 141.779 80.4434 141.779C84.0814 141.779 87.1321 142.453 89.5845 143.8C92.0368 145.147 93.7293 147.079 94.6732 149.597L88.4103 152.71C87.42 151.22 86.338 150.127 85.1521 149.442C83.9664 148.747 82.6078 148.404 81.0768 148.404C78.9237 148.404 77.1968 148.945 75.9303 150.027C74.6524 151.098 74.0194 152.545 74.0194 154.356C74.0194 157.205 76.8169 159.866 82.4007 162.317C82.8266 162.516 83.1605 162.67 83.4136 162.77C88.2953 164.934 91.6452 167.043 93.4645 169.097C95.2833 171.162 96.1929 173.735 96.1929 176.816C96.1929 181.299 94.7193 184.865 91.7719 187.504C88.8247 190.143 84.8413 191.468 79.8215 191.468C75.6195 191.468 72.1771 190.541 69.4834 188.686C66.8009 186.831 65.0394 184.181 64.2104 180.724ZM141.76 149.398V190.21H133.747V149.398H120.623V142.839H154.816V149.398H141.76ZM192.232 171.593H206.002L200.936 160.794C200.648 160.109 200.338 159.314 200.027 158.419C199.716 157.525 199.394 156.531 199.083 155.427C198.818 156.465 198.53 157.426 198.219 158.32C197.92 159.214 197.609 160.042 197.298 160.794L192.232 171.593ZM214.429 190.21L208.834 178.019H189.262L183.529 190.21H175.102L199.014 140.984L222.903 190.21H214.429ZM288.019 154.367C285.751 152.512 283.345 151.121 280.824 150.193C278.291 149.265 275.631 148.802 272.845 148.802C267.457 148.802 263.071 150.458 259.686 153.782C256.301 157.105 254.609 161.401 254.609 166.69C254.609 171.791 256.255 176.009 259.548 179.333C262.84 182.657 266.997 184.313 272.005 184.313C274.929 184.313 277.704 183.816 280.351 182.822C282.988 181.829 285.521 180.338 287.95 178.328V187.029C285.797 188.52 283.448 189.635 280.904 190.364C278.36 191.104 275.608 191.468 272.649 191.468C268.873 191.468 265.385 190.872 262.184 189.691C258.972 188.498 256.163 186.753 253.734 184.445C251.328 182.182 249.486 179.51 248.185 176.44C246.895 173.37 246.251 170.091 246.251 166.624C246.251 163.145 246.895 159.888 248.185 156.84C249.486 153.782 251.351 151.11 253.803 148.802C256.255 146.472 259.064 144.705 262.23 143.513C265.396 142.309 268.827 141.713 272.511 141.713C275.412 141.713 278.176 142.121 280.801 142.927C283.437 143.745 285.981 144.97 288.456 146.615L288.019 154.367ZM318.966 190.21V142.839H326.978V190.21H318.966ZM401.651 166.624C401.651 164.228 401.19 161.953 400.28 159.799C399.371 157.647 398.058 155.725 396.355 154.047C394.685 152.379 392.762 151.11 390.575 150.215C388.376 149.32 386.062 148.868 383.644 148.868C381.215 148.868 378.901 149.31 376.702 150.193C374.515 151.076 372.558 152.357 370.854 154.047C369.15 155.703 367.838 157.613 366.939 159.767C366.041 161.919 365.592 164.205 365.592 166.624C365.592 169.02 366.041 171.283 366.939 173.414C367.838 175.545 369.15 177.456 370.854 179.134C372.558 180.824 374.503 182.105 376.691 182.988C378.866 183.871 381.192 184.313 383.644 184.313C386.051 184.313 388.33 183.871 390.506 182.988C392.67 182.105 394.627 180.824 396.355 179.134C398.058 177.456 399.371 175.545 400.28 173.404C401.19 171.25 401.651 168.998 401.651 166.624ZM410.009 166.624C410.009 169.991 409.352 173.171 408.04 176.164C406.716 179.167 404.805 181.84 402.284 184.192C399.751 186.544 396.884 188.343 393.683 189.591C390.494 190.839 387.144 191.468 383.644 191.468C380.087 191.468 376.702 190.839 373.467 189.58C370.243 188.31 367.4 186.521 364.924 184.192C362.403 181.84 360.492 179.179 359.191 176.197C357.89 173.227 357.234 170.035 357.234 166.624C357.234 163.234 357.89 160.042 359.191 157.05C360.492 154.047 362.403 151.363 364.924 148.989C367.446 146.637 370.301 144.849 373.49 143.623C376.679 142.397 380.064 141.779 383.644 141.779C387.19 141.779 390.552 142.397 393.741 143.623C396.919 144.849 399.773 146.637 402.284 148.989C404.805 151.386 406.716 154.091 408.04 157.094C409.352 160.109 410.009 163.278 410.009 166.624ZM440.057 190.21V140.984L471.441 169.925C472.293 170.742 473.156 171.615 474.043 172.542C474.918 173.47 475.839 174.519 476.806 175.678V142.839H484.197V192.065L452.203 162.582C451.351 161.776 450.522 160.937 449.728 160.054C448.922 159.17 448.173 158.243 447.448 157.271V190.21H440.057ZM526.818 171.593H540.587L535.521 160.794C535.233 160.109 534.922 159.314 534.611 158.419C534.301 157.525 533.978 156.531 533.667 155.427C533.403 156.465 533.115 157.426 532.804 158.32C532.505 159.214 532.194 160.042 531.883 160.794L526.818 171.593ZM549.014 190.21L543.419 178.019H523.847L518.114 190.21H509.686L533.598 140.984L557.488 190.21H549.014ZM623.249 166.822C623.156 166.458 623.007 165.442 622.811 163.786C622.627 162.406 622.466 161.257 622.339 160.352C622.132 161.434 621.844 162.516 621.475 163.587C621.107 164.669 620.635 165.763 620.071 166.889L607.154 192.131L594.236 166.369C593.695 165.309 593.223 164.294 592.832 163.3C592.44 162.306 592.095 161.323 591.807 160.352C591.784 161.346 591.703 162.383 591.554 163.477C591.404 164.57 591.186 165.707 590.898 166.889L585.602 190.21H578.21L589.885 140.851L604.46 170.742C604.679 171.206 605.024 172.001 605.484 173.094C605.945 174.198 606.498 175.557 607.154 177.169C607.625 175.811 608.374 174.088 609.387 172.001C609.652 171.438 609.859 171.007 609.986 170.709L624.227 140.851L636.166 190.21H628.706L623.249 166.822ZM663.428 190.21V142.839H690.99V149.398H671.441V161.257H690.99V168.015H671.441V183.319H690.99V190.21H663.428ZM721.038 190.21V140.984L752.422 169.925C753.274 170.742 754.138 171.615 755.024 172.542C755.899 173.47 756.82 174.519 757.787 175.678V142.839H765.178V192.065L733.184 162.582C732.332 161.776 731.504 160.937 730.709 160.054C729.903 159.17 729.155 158.243 728.429 157.271V190.21H721.038ZM813.325 149.398V190.21H805.312V149.398H792.187V142.839H826.38V149.398H813.325ZM895.641 166.624C895.641 164.228 895.181 161.953 894.271 159.799C893.362 157.647 892.049 155.725 890.346 154.047C888.676 152.379 886.753 151.11 884.566 150.215C882.367 149.32 880.053 148.868 877.635 148.868C875.206 148.868 872.892 149.31 870.693 150.193C868.505 151.076 866.549 152.357 864.845 154.047C863.141 155.703 861.828 157.613 860.93 159.767C860.032 161.919 859.583 164.205 859.583 166.624C859.583 169.02 860.032 171.283 860.93 173.414C861.828 175.545 863.141 177.456 864.845 179.134C866.549 180.824 868.494 182.105 870.682 182.988C872.857 183.871 875.183 184.313 877.635 184.313C880.042 184.313 882.321 183.871 884.497 182.988C886.661 182.105 888.618 180.824 890.346 179.134C892.049 177.456 893.362 175.545 894.271 173.404C895.181 171.25 895.641 168.998 895.641 166.624ZM904 166.624C904 169.991 903.343 173.171 902.031 176.164C900.707 179.167 898.796 181.84 896.274 184.192C893.742 186.544 890.875 188.343 887.674 189.591C884.485 190.839 881.135 191.468 877.635 191.468C874.078 191.468 870.693 190.839 867.458 189.58C864.234 188.31 861.391 186.521 858.915 184.192C856.394 181.84 854.483 179.179 853.182 176.197C851.881 173.227 851.225 170.035 851.225 166.624C851.225 163.234 851.881 160.042 853.182 157.05C854.483 154.047 856.394 151.363 858.915 148.989C861.437 146.637 864.292 144.849 867.481 143.623C870.67 142.397 874.055 141.779 877.635 141.779C881.181 141.779 884.543 142.397 887.732 143.623C890.91 144.849 893.765 146.637 896.274 148.989C898.796 151.386 900.707 154.091 902.031 157.094C903.343 160.109 904 163.278 904 166.624Z" fill="#211C1D"/>
<path d="M26.5325 115.76L34.3169 96.7288H82.887L90.5618 115.76H117.314L74.5544 1.41592H43.5264L0 115.76H26.5325ZM43.5264 69.2044L58.6567 28.7831L74.116 69.2044H43.5264Z" fill="#99D420"/>
<path d="M212.372 29.2548V1.41592H125.318V115.76H213.359V88.0783H149.658V70.6199H208.754V46.5557H149.658V29.2548H212.372Z" fill="#99D420"/>
<path d="M291.86 1.41592H227.831V115.76H252.281V86.5056H288.571C296.575 86.5056 299.535 88.5501 299.535 98.3015V115.76H323.875V92.3248C323.875 80.686 319.599 73.4513 311.267 70.6199C321.244 67.1599 324.533 57.7227 324.533 38.8491C324.533 9.12281 315.981 1.41592 291.86 1.41592ZM290.983 29.8838C297.233 29.8838 299.754 33.973 299.754 42.781C299.754 53.6334 297.781 57.8803 290.983 57.8803H252.281V29.8838H290.983Z" fill="#99D420"/>
<path d="M384.507 88.5495C369.048 88.5495 363.018 85.0893 363.018 67.0018V51.1165C363.018 31.7708 368.609 28.6249 384.397 28.6249H399.966C415.425 28.6249 421.345 31.9279 421.345 50.4873V66.6871C421.345 85.2465 415.425 88.5495 399.966 88.5495H384.507ZM377.929 117.175H406.435C420.907 117.175 430.884 116.231 437.462 109.154C443.602 102.391 446.014 91.5377 446.014 74.5516V42.6232C446.014 25.6367 443.493 14.6271 437.462 8.02118C431.103 1.10059 421.017 -0.000385492 406.435 -0.000385492H377.819C363.237 -0.000385492 353.369 1.10059 346.901 8.02118C340.322 15.0988 338.239 26.423 338.239 44.0389V75.1804C338.239 91.6952 340.432 102.233 346.901 109.154C353.698 116.388 363.675 117.175 377.929 117.175Z" fill="#99D420"/>
<path d="M521.995 1.41592H460.816V115.76H485.266V87.2919H530.766C548.418 87.2919 554.667 75.0239 554.667 44.3541C554.667 24.5363 551.707 12.5828 543.155 6.1344C538.112 2.35941 531.314 1.41592 521.995 1.41592ZM521.118 29.8838C527.367 29.8838 529.889 34.1305 529.889 43.2531C529.889 54.4201 527.915 58.8237 521.118 58.8237H485.266V29.8838H521.118Z" fill="#211C1D"/>
<path d="M579.994 115.76L587.779 96.7288H636.349L644.024 115.76H670.775L628.016 1.41592H596.989L553.462 115.76H579.994ZM596.989 69.2044L612.119 28.7831L627.578 69.2044H596.989Z" fill="#211C1D"/>
<path d="M743.357 1.41592H679.328V115.76H703.778V86.5056H740.068C748.072 86.5056 751.032 88.5501 751.032 98.3015V115.76H775.372V92.3248C775.372 80.686 771.096 73.4513 762.763 70.6199C772.741 67.1599 776.03 57.7227 776.03 38.8491C776.03 9.12281 767.478 1.41592 743.357 1.41592ZM742.481 29.8838C748.73 29.8838 751.252 33.973 751.252 42.781C751.252 53.6334 749.278 57.8803 742.481 57.8803H703.778V29.8838H742.481Z" fill="#211C1D"/>
<path d="M816.269 43.882V1.41592H791.929V115.76H816.269V72.5074H826.465L862.536 115.76H896.415L847.626 57.8803L890.713 1.41592H858.37L826.465 43.882H816.269Z" fill="#211C1D"/>
</svg>
