<svg width="502" height="102" viewBox="0 0 502 102" fill="none" xmlns="http://www.w3.org/2000/svg">
<path d="M102.875 50.7329C102.875 78.7519 79.8457 101.466 51.4375 101.466C23.0294 101.466 0 78.7519 0 50.7329C0 22.7139 23.0294 0 51.4375 0C79.8457 0 102.875 22.7139 102.875 50.7329Z" fill="#BB2A25"/>
<path d="M46.9923 49.9402L60.328 36.9399V44.0742H86.523V85.9288H73.6636V56.1233H60.328V63.2576L46.9923 49.9402Z" fill="white"/>
<path d="M71.1179 61.3039C67.411 67.6527 60.4607 71.9773 52.3901 71.9773C40.3473 71.9773 30.799 62.3481 30.799 50.7329C30.799 39.1176 40.3473 29.4885 52.3901 29.4885C58.8237 29.4885 64.5455 32.2367 68.4797 36.5678L78.3661 26.695C71.8764 19.8285 62.6396 15.5369 52.3901 15.5369C32.7499 15.5369 16.8283 31.2947 16.8283 50.7329C16.8283 70.1711 32.7499 85.9288 52.3901 85.9288C59.2646 85.9288 65.6835 83.9983 71.1235 80.6551V61.3551L71.1179 61.3039Z" fill="white"/>
<path d="M493.559 27.6203C491.989 27.6203 490.543 27.2472 489.222 26.501C487.9 25.7393 486.843 24.6978 486.05 23.3764C485.273 22.0395 484.884 20.5549 484.884 18.9226C484.884 17.2903 485.273 15.8212 486.05 14.5154C486.828 13.2096 487.877 12.1913 489.198 11.4607C490.52 10.7301 491.965 10.3647 493.535 10.3647C495.09 10.3647 496.512 10.7301 497.803 11.4607C499.093 12.1913 500.111 13.2096 500.857 14.5154C501.619 15.8212 502 17.2903 502 18.9226C502 20.5549 501.627 22.0395 500.881 23.3764C500.135 24.6978 499.116 25.7393 497.826 26.501C496.536 27.2472 495.113 27.6203 493.559 27.6203ZM493.535 26.2912C494.826 26.2912 495.999 25.9725 497.057 25.3351C498.129 24.6978 498.976 23.8194 499.598 22.7001C500.22 21.5653 500.531 20.3061 500.531 18.9226C500.531 17.539 500.22 16.2954 499.598 15.1916C498.976 14.0879 498.129 13.2329 497.057 12.6266C495.999 12.0048 494.826 11.6939 493.535 11.6939C492.23 11.6939 491.025 12.0048 489.921 12.6266C488.833 13.2329 487.97 14.0879 487.333 15.1916C486.695 16.2954 486.377 17.539 486.377 18.9226C486.377 20.3061 486.695 21.5653 487.333 22.7001C487.986 23.8194 488.856 24.6978 489.944 25.3351C491.048 25.9725 492.245 26.2912 493.535 26.2912ZM489.991 14.3055H493.652C494.911 14.3055 495.852 14.5698 496.474 15.0984C497.111 15.6114 497.43 16.3653 497.43 17.3602C497.43 18.0753 497.282 18.6972 496.987 19.2257C496.707 19.7387 496.132 20.0963 495.261 20.2984L497.616 23.4697H494.958L493.069 20.5315H492.043V23.4697H489.991V14.3055ZM493.465 18.8993C494.134 18.8993 494.6 18.7827 494.865 18.5495C495.129 18.3008 495.261 17.9199 495.261 17.4069C495.261 16.8939 495.129 16.5052 494.865 16.241C494.6 15.9611 494.149 15.8212 493.512 15.8212H492.043V18.8993H493.465Z" fill="#BB2A25"/>
<path d="M453.943 44.0465L454.134 49.1169V74.2151H447.035V27.5679H447.922L475.302 58.1168L475.049 52.7929V27.6313H482.147V74.2151H481.197L453.943 44.0465Z" fill="#BB2A25"/>
<path d="M406.203 44.0465L406.393 49.1169V74.2151H399.295V27.5679H400.182L427.562 58.1168L427.308 52.7929V27.6313H434.407V74.2151H433.456L406.203 44.0465Z" fill="#BB2A25"/>
<path d="M383.546 27.6313H390.645V74.2152H383.546V27.6313Z" fill="#BB2A25"/>
<path d="M351.702 27.6313H374.483V33.8425H358.737V46.7086H374.483V53.0465H358.737V67.9407H374.483V74.2152H351.702V27.6313Z" fill="#303030"/>
<path d="M327.027 74.8489C322.421 74.8489 318.302 73.7926 314.668 71.68C311.034 69.5673 308.182 66.673 306.112 62.997C304.084 59.2787 303.07 55.1168 303.07 50.5112C303.07 46.0324 304.105 41.9973 306.175 38.4058C308.246 34.8143 311.119 32.0044 314.795 29.9763C318.471 27.9482 322.612 26.9341 327.217 26.9341C329.71 26.9341 331.949 27.1665 333.935 27.6313C335.963 28.0538 337.611 28.5608 338.879 29.1524C340.147 29.7017 341.013 30.1876 341.477 30.6101L338.689 36.5678C336.069 34.4551 332.203 33.3988 327.09 33.3988C323.71 33.3988 320.774 34.1382 318.281 35.6171C315.788 37.0959 313.886 39.1029 312.576 41.6381C311.267 44.1733 310.612 47.0042 310.612 50.131C310.612 53.6802 311.309 56.8492 312.703 59.6379C314.14 62.4266 316.105 64.6026 318.597 66.166C321.133 67.6871 323.985 68.4476 327.154 68.4476C329.14 68.4476 331.041 68.2152 332.858 67.7504C334.675 67.2434 336.217 66.4617 337.485 65.4054V56.4055H327.914V49.8774H344.52V68.1307C342.999 70.0321 340.696 71.6377 337.611 72.9476C334.569 74.2152 331.041 74.8489 327.027 74.8489Z" fill="#303030"/>
<path d="M284.297 27.5679L306.733 74.2151H298.557L294.564 65.0885H273.206L269.213 74.2151H261.29L283.6 27.5679H284.297ZM281.128 47.4056L276.058 58.6872H291.776L286.769 47.469L284.044 41.0677H283.917L281.128 47.4056Z" fill="#303030"/>
<path d="M251.824 74.2152L242.444 56.5958C240.501 56.6803 238.768 56.7225 237.247 56.7225H235.473V74.2152H228.564V27.6313H239.149C244.515 27.6313 248.93 28.7511 252.395 30.9905C255.86 33.1876 257.592 36.7791 257.592 41.765C257.592 44.8917 256.853 47.5959 255.374 49.8775C253.937 52.1169 251.782 53.8493 248.909 55.0747L260 74.2152H251.824ZM239.973 50.955C244.113 50.955 246.944 50.0677 248.465 48.293C250.029 46.4762 250.81 44.3213 250.81 41.8283C250.81 36.2932 247.113 33.5256 239.719 33.5256H235.473V50.955H239.973Z" fill="#303030"/>
<path d="M202.226 27.5679L224.662 74.2151H216.486L212.493 65.0885H191.134L187.141 74.2151H179.219L201.528 27.5679H202.226ZM199.057 47.4056L193.986 58.6872H209.704L204.697 47.469L201.972 41.0677H201.845L199.057 47.4056Z" fill="#303030"/>
<path d="M159.752 74.8489C155.147 74.8489 151.027 73.7926 147.393 71.68C143.76 69.5673 140.908 66.673 138.837 62.997C136.809 59.2787 135.795 55.1168 135.795 50.5112C135.795 46.0324 136.83 41.9973 138.901 38.4058C140.971 34.8143 143.844 32.0044 147.52 29.9763C151.196 27.9482 155.337 26.9341 159.943 26.9341C162.436 26.9341 164.675 27.1665 166.661 27.6313C168.689 28.0538 170.337 28.5608 171.604 29.1524C172.872 29.7017 173.738 30.1876 174.203 30.6101L171.414 36.5678C168.795 34.4551 164.928 33.3988 159.816 33.3988C156.436 33.3988 153.499 34.1382 151.006 35.6171C148.513 37.0959 146.612 39.1029 145.302 41.6381C143.992 44.1733 143.337 47.0042 143.337 50.131C143.337 53.6802 144.034 56.8492 145.429 59.6379C146.865 62.4266 148.83 64.6026 151.323 66.166C153.858 67.6871 156.71 68.4476 159.879 68.4476C161.865 68.4476 163.767 68.2152 165.583 67.7504C167.4 67.2434 168.942 66.4617 170.21 65.4054V56.4055H160.64V49.8774H177.245V68.1307C175.724 70.0321 173.421 71.6377 170.337 72.9476C167.295 74.2152 163.767 74.8489 159.752 74.8489Z" fill="#303030"/>
</svg>
