<svg width="769" height="183" viewBox="0 0 769 183" fill="none" xmlns="http://www.w3.org/2000/svg">
<path d="M734.201 62.957L733.913 65.6212L735.497 63.605L752.779 44.0916H766.316L744.426 67.8533L766.388 97.0875H753.139L736.793 74.4778L734.201 77.07V97.0875H723.616V44.0916H734.201V62.957Z" fill="#360036"/>
<path d="M690.311 44.0916C693.623 44.0916 696.575 44.5236 699.167 45.3876C701.759 46.2037 703.92 47.4038 705.648 48.9879C707.424 50.524 708.768 52.3962 709.68 54.6043C710.592 56.7645 711.048 59.2127 711.048 61.9489C711.048 64.109 710.712 66.2692 710.04 68.4294C709.416 70.5895 708.36 72.5577 706.872 74.3338C705.432 76.1099 703.512 77.55 701.111 78.6541C698.711 79.7102 695.735 80.2382 692.183 80.2382H684.694V97.0875H674.253V44.0916H690.311ZM692.111 70.1575C693.695 70.1575 695.015 69.8935 696.071 69.3654C697.127 68.8374 697.943 68.1653 698.519 67.3493C699.143 66.5332 699.575 65.6932 699.815 64.8291C700.103 63.917 700.247 63.077 700.247 62.3089C700.247 61.7329 700.151 61.0128 699.959 60.1487C699.815 59.2367 699.479 58.3246 698.951 57.4125C698.423 56.5005 697.607 55.7324 696.503 55.1084C695.447 54.4843 694.007 54.1723 692.183 54.1723H684.694V70.1575H692.111ZM701.903 76.638L715.008 97.0875H702.84L689.447 76.926L701.903 76.638Z" fill="#360036"/>
<path d="M618.141 97.0875L642.047 42.0034H642.623L666.529 97.0875H654.432L639.167 58.3486L646.727 53.1642L628.438 97.0875H618.141ZM634.487 77.9341H650.4L654.072 86.7187H631.246L634.487 77.9341Z" fill="#360036"/>
<path d="M599.741 44.0916C604.11 44.0916 607.806 44.8356 610.83 46.3237C613.854 47.7638 616.159 49.828 617.743 52.5162C619.327 55.1564 620.119 58.3006 620.119 61.9489C620.119 64.109 619.783 66.2932 619.111 68.5014C618.487 70.6615 617.455 72.6297 616.014 74.4058C614.622 76.1819 612.726 77.622 610.326 78.7261C607.974 79.7822 605.07 80.3102 601.613 80.3102H594.125V97.0875H583.684V44.0916H599.741ZM601.541 70.1575C603.126 70.1575 604.446 69.8935 605.502 69.3654C606.558 68.7894 607.374 68.0933 607.95 67.2773C608.574 66.4132 609.006 65.5251 609.246 64.6131C609.534 63.701 609.678 62.909 609.678 62.2369C609.678 61.7089 609.582 61.0128 609.39 60.1487C609.246 59.2367 608.91 58.3246 608.382 57.4125C607.854 56.5005 607.038 55.7324 605.934 55.1084C604.878 54.4843 603.438 54.1723 601.613 54.1723H594.125V70.1575H601.541Z" fill="#360036"/>
<path d="M546.333 99.2477L506.154 62.957L509.25 64.6851L509.466 97.0875H498.881V42.0034H499.313L538.628 78.1501L536.324 77.142L536.108 44.0916H546.621V99.2477H546.333Z" fill="#360036"/>
<path d="M434.325 70.6621C434.325 67.0139 435.021 63.5576 436.413 60.2934C437.805 57.0291 439.725 54.1489 442.174 51.6527C444.67 49.1085 447.55 47.1164 450.814 45.6763C454.078 44.2362 457.583 43.5161 461.327 43.5161C465.023 43.5161 468.503 44.2362 471.768 45.6763C475.032 47.1164 477.912 49.1085 480.408 51.6527C482.953 54.1489 484.921 57.0291 486.313 60.2934C487.753 63.5576 488.473 67.0139 488.473 70.6621C488.473 74.4064 487.753 77.9107 486.313 81.1749C484.921 84.4391 482.953 87.3194 480.408 89.8155C477.912 92.2637 475.032 94.1839 471.768 95.576C468.503 96.9681 465.023 97.6641 461.327 97.6641C457.583 97.6641 454.078 96.9681 450.814 95.576C447.55 94.1839 444.67 92.2637 442.174 89.8155C439.725 87.3194 437.805 84.4391 436.413 81.1749C435.021 77.9107 434.325 74.4064 434.325 70.6621ZM445.126 70.6621C445.126 73.0143 445.534 75.2225 446.35 77.2866C447.214 79.3028 448.39 81.1029 449.878 82.687C451.414 84.2231 453.166 85.4232 455.134 86.2873C457.151 87.1514 459.335 87.5834 461.687 87.5834C463.943 87.5834 466.031 87.1514 467.951 86.2873C469.92 85.4232 471.624 84.2231 473.064 82.687C474.504 81.1029 475.632 79.3028 476.448 77.2866C477.264 75.2225 477.672 73.0143 477.672 70.6621C477.672 68.2619 477.24 66.0298 476.376 63.9656C475.56 61.9015 474.408 60.1013 472.92 58.5652C471.48 56.9811 469.776 55.757 467.807 54.893C465.839 54.0289 463.703 53.5969 461.399 53.5969C459.095 53.5969 456.959 54.0289 454.99 54.893C453.022 55.757 451.294 56.9811 449.806 58.5652C448.318 60.1013 447.166 61.9015 446.35 63.9656C445.534 66.0298 445.126 68.2619 445.126 70.6621Z" fill="#360036"/>
<path d="M413.445 44.0916H423.886V97.0875H413.445V44.0916Z" fill="#360036"/>
<path d="M367.655 44.0916H403.369V54.1723H390.48V97.0875H380.04V54.1723H367.655V44.0916Z" fill="#360036"/>
<path d="M319.432 97.0875L343.337 42.0034H343.913L367.819 97.0875H355.722L340.457 58.3486L348.018 53.1642L329.728 97.0875H319.432ZM335.777 77.9341H351.69L355.362 86.7187H332.537L335.777 77.9341Z" fill="#360036"/>
<path d="M311.471 99.2477L271.292 62.957L274.389 64.6851L274.605 97.0875H264.02V42.0034H264.452L303.767 78.1501L301.463 77.142L301.247 44.0916H311.759V99.2477H311.471Z" fill="#360036"/>
<path d="M768.058 123.593C768.058 126.572 767.52 129.145 766.445 131.315C765.369 133.484 763.894 135.157 762.018 136.334C760.143 137.51 758.002 138.099 755.593 138.099C753.185 138.099 751.043 137.51 749.168 136.334C747.293 135.157 745.817 133.484 744.742 131.315C743.666 129.145 743.129 126.572 743.129 123.593C743.129 120.615 743.666 118.041 744.742 115.872C745.817 113.703 747.293 112.03 749.168 110.853C751.043 109.676 753.185 109.088 755.593 109.088C758.002 109.088 760.143 109.676 762.018 110.853C763.894 112.03 765.369 113.703 766.445 115.872C767.52 118.041 768.058 120.615 768.058 123.593ZM764.749 123.593C764.749 121.148 764.34 119.085 763.521 117.402C762.713 115.72 761.614 114.447 760.226 113.583C758.847 112.719 757.303 112.287 755.593 112.287C753.883 112.287 752.335 112.719 750.947 113.583C749.568 114.447 748.469 115.72 747.651 117.402C746.842 119.085 746.438 121.148 746.438 123.593C746.438 126.038 746.842 128.102 747.651 129.784C748.469 131.466 749.568 132.74 750.947 133.604C752.335 134.468 753.883 134.9 755.593 134.9C757.303 134.9 758.847 134.468 760.226 133.604C761.614 132.74 762.713 131.466 763.521 129.784C764.34 128.102 764.749 126.038 764.749 123.593Z" fill="#A8C850"/>
<path d="M707.302 112.508V109.474H728.48V112.508H719.601V137.713H716.181V112.508H707.302Z" fill="#A8C850"/>
<path d="M690.352 109.474V137.713H687.043L671.656 115.541H671.38V137.713H667.96V109.474H671.27L686.712 131.701H686.988V109.474H690.352Z" fill="#A8C850"/>
<path d="M633.109 137.713V109.474H650.151V112.508H636.528V122.049H649.269V125.083H636.528V134.679H650.372V137.713H633.109Z" fill="#A8C850"/>
<path d="M586.917 109.474H590.999L600.595 132.914H600.926L610.523 109.474H614.604V137.713H611.405V116.258H611.129L602.305 137.713H599.216L590.392 116.258H590.116V137.713H586.917V109.474Z" fill="#A8C850"/>
<path d="M550.19 137.713H546.605L556.974 109.474H560.503L570.872 137.713H567.287L558.849 113.942H558.628L550.19 137.713ZM551.514 126.682H565.964V129.715H551.514V126.682Z" fill="#A8C850"/>
<path d="M530.54 109.474V137.713H527.231L511.843 115.541H511.567V137.713H508.148V109.474H511.457L526.9 131.701H527.176V109.474H530.54Z" fill="#A8C850"/>
<path d="M490.752 123.593C490.752 126.572 490.214 129.145 489.139 131.315C488.063 133.484 486.588 135.157 484.713 136.334C482.837 137.51 480.696 138.099 478.287 138.099C475.879 138.099 473.737 137.51 471.862 136.334C469.987 135.157 468.511 133.484 467.436 131.315C466.36 129.145 465.823 126.572 465.823 123.593C465.823 120.615 466.36 118.041 467.436 115.872C468.511 113.703 469.987 112.03 471.862 110.853C473.737 109.676 475.879 109.088 478.287 109.088C480.696 109.088 482.837 109.676 484.713 110.853C486.588 112.03 488.063 113.703 489.139 115.872C490.214 118.041 490.752 120.615 490.752 123.593ZM487.443 123.593C487.443 121.148 487.034 119.085 486.216 117.402C485.407 115.72 484.308 114.447 482.92 113.583C481.541 112.719 479.997 112.287 478.287 112.287C476.578 112.287 475.029 112.719 473.641 113.583C472.262 114.447 471.163 115.72 470.345 117.402C469.536 119.085 469.132 121.148 469.132 123.593C469.132 126.038 469.536 128.102 470.345 129.784C471.163 131.466 472.262 132.74 473.641 133.604C475.029 134.468 476.578 134.9 478.287 134.9C479.997 134.9 481.541 134.468 482.92 133.604C484.308 132.74 485.407 131.466 486.216 129.784C487.034 128.102 487.443 126.038 487.443 123.593Z" fill="#A8C850"/>
<path d="M448.419 109.474V137.713H445V109.474H448.419Z" fill="#A8C850"/>
<path d="M427.824 118.299H424.405C424.203 117.315 423.849 116.451 423.343 115.706C422.847 114.962 422.24 114.337 421.523 113.831C420.815 113.317 420.029 112.93 419.165 112.673C418.301 112.416 417.4 112.287 416.463 112.287C414.753 112.287 413.204 112.719 411.816 113.583C410.437 114.447 409.339 115.72 408.521 117.402C407.712 119.085 407.307 121.148 407.307 123.593C407.307 126.038 407.712 128.102 408.521 129.784C409.339 131.466 410.437 132.74 411.816 133.604C413.204 134.468 414.753 134.9 416.463 134.9C417.4 134.9 418.301 134.771 419.165 134.514C420.029 134.256 420.815 133.875 421.523 133.369C422.24 132.854 422.847 132.225 423.343 131.48C423.849 130.726 424.203 129.862 424.405 128.888H427.824C427.567 130.331 427.098 131.623 426.418 132.762C425.738 133.902 424.892 134.872 423.881 135.672C422.87 136.462 421.735 137.064 420.475 137.478C419.225 137.892 417.888 138.099 416.463 138.099C414.054 138.099 411.913 137.51 410.038 136.334C408.162 135.157 406.687 133.484 405.612 131.315C404.536 129.145 403.998 126.572 403.998 123.593C403.998 120.615 404.536 118.041 405.612 115.872C406.687 113.703 408.162 112.03 410.038 110.853C411.913 109.676 414.054 109.088 416.463 109.088C417.888 109.088 419.225 109.295 420.475 109.709C421.735 110.122 422.87 110.729 423.881 111.529C424.892 112.319 425.738 113.284 426.418 114.424C427.098 115.555 427.567 116.846 427.824 118.299Z" fill="#A8C850"/>
<path d="M369.701 137.713H366.116L376.485 109.474H380.015L390.383 137.713H386.799L378.36 113.942H378.14L369.701 137.713ZM371.025 126.682H385.475V129.715H371.025V126.682Z" fill="#A8C850"/>
<path d="M333.736 112.508V109.474H354.915V112.508H346.035V137.713H342.616V112.508H333.736Z" fill="#A8C850"/>
<path d="M314.316 116.534C314.151 115.137 313.48 114.052 312.303 113.28C311.126 112.508 309.683 112.122 307.973 112.122C306.723 112.122 305.629 112.324 304.692 112.728C303.763 113.133 303.037 113.689 302.513 114.397C301.999 115.104 301.741 115.909 301.741 116.81C301.741 117.563 301.92 118.211 302.279 118.754C302.647 119.287 303.115 119.733 303.685 120.091C304.255 120.44 304.853 120.73 305.478 120.96C306.103 121.18 306.677 121.36 307.201 121.498L310.069 122.27C310.805 122.463 311.623 122.729 312.524 123.069C313.434 123.409 314.302 123.874 315.13 124.462C315.966 125.041 316.655 125.786 317.198 126.696C317.74 127.606 318.011 128.723 318.011 130.046C318.011 131.572 317.611 132.951 316.812 134.183C316.021 135.414 314.863 136.393 313.337 137.12C311.82 137.846 309.977 138.209 307.808 138.209C305.786 138.209 304.035 137.883 302.555 137.23C301.084 136.577 299.926 135.667 299.08 134.5C298.244 133.332 297.77 131.977 297.66 130.432H301.19C301.282 131.499 301.64 132.381 302.265 133.08C302.899 133.769 303.699 134.284 304.664 134.624C305.639 134.955 306.687 135.12 307.808 135.12C309.113 135.12 310.285 134.909 311.324 134.486C312.363 134.054 313.185 133.456 313.792 132.694C314.399 131.921 314.702 131.021 314.702 129.991C314.702 129.053 314.44 128.291 313.916 127.702C313.392 127.114 312.703 126.636 311.848 126.268C310.993 125.901 310.069 125.579 309.077 125.303L305.602 124.31C303.396 123.676 301.649 122.771 300.362 121.594C299.076 120.417 298.432 118.878 298.432 116.975C298.432 115.394 298.859 114.015 299.714 112.839C300.578 111.653 301.737 110.734 303.189 110.081C304.651 109.419 306.282 109.088 308.084 109.088C309.904 109.088 311.522 109.414 312.937 110.067C314.353 110.711 315.474 111.593 316.302 112.714C317.138 113.836 317.579 115.109 317.625 116.534H314.316Z" fill="#A8C850"/>
<path d="M264.02 137.713V109.474H281.062V112.508H267.439V122.049H280.18V125.083H267.439V134.679H281.283V137.713H264.02Z" fill="#A8C850"/>
<path d="M27.365 24.9747C62.8969 -9.23674 119.435 -8.16633 153.646 27.3653C154.184 27.9234 154.712 28.4874 155.232 29.0557C122.637 -3.0688 70.1822 -3.53659 37.0174 28.3956C3.30795 60.8528 2.29275 114.493 34.7498 148.202C61.3363 175.814 102.134 181.488 134.55 164.799L133.969 163.89L114.859 151.672L126.984 139.547L139.436 142.763L153.701 125.35L123.627 105.3L137.409 91.5118L175.013 104.052L193.498 85.5665C199.205 79.8548 208.045 79.4357 213.235 84.626C218.425 89.8165 218.001 98.6525 212.295 104.364L193.809 122.85L206.339 160.44L192.556 174.227L172.503 144.152L155.738 159.065L158.311 170.874L146.186 182.999L135.263 165.914C100.371 186.887 54.4096 181.827 24.9744 151.256C-9.23689 115.724 -8.16666 59.1862 27.365 24.9747Z" fill="#360036"/>
</svg>
