<svg width="1128" height="376" viewBox="0 0 1128 376" fill="none" xmlns="http://www.w3.org/2000/svg">
<g clip-path="url(#clip0_6326_18059)">
<path d="M917.193 98.1953H947.264V156.335L1010.5 98.1953H1047.43L986.304 151.323L1043.54 237.579H1006.88L965.201 171.37L947.264 188.78V237.579H917.193V98.1953Z" fill="#05184F"/>
<path d="M823.666 101.205H851.89V127.583H852.418C853.297 123.89 854.968 120.285 857.43 116.768C860.068 113.251 863.145 110.085 866.662 107.272C870.355 104.282 874.4 101.908 878.796 100.15C883.192 98.391 887.677 97.5117 892.249 97.5117C895.766 97.5117 898.14 97.5996 899.371 97.7755C900.778 97.9513 902.184 98.1272 903.591 98.3031V127.319C901.481 126.967 899.283 126.703 896.997 126.527C894.887 126.176 892.776 126 890.666 126C885.566 126 880.73 127.055 876.158 129.165C871.762 131.1 867.893 134.089 864.552 138.134C861.211 142.003 858.573 146.839 856.638 152.642C854.704 158.445 853.737 165.127 853.737 172.689V237.579H823.666V101.205Z" fill="#05184F"/>
<path d="M516.628 101.205H545.116V119.669H545.644C549.864 111.756 555.755 106.129 563.317 102.787C570.879 99.2702 579.056 97.5117 587.848 97.5117C598.576 97.5117 607.896 99.4461 615.809 103.315C623.898 107.008 630.581 112.195 635.856 118.878C641.132 125.384 645.089 133.034 647.726 141.827C650.364 150.619 651.683 160.028 651.683 170.051C651.683 179.196 650.452 188.076 647.99 196.693C645.704 205.31 642.099 212.959 637.175 219.642C632.427 226.148 626.36 231.424 618.975 235.469C611.589 239.337 602.884 241.272 592.86 241.272C588.464 241.272 584.068 240.832 579.671 239.953C575.275 239.249 571.055 238.018 567.01 236.26C562.965 234.501 559.184 232.303 555.667 229.665C552.326 226.852 549.512 223.598 547.226 219.906H546.699V287.961H516.628V101.205ZM621.612 169.524C621.612 163.369 620.821 157.39 619.238 151.587C617.656 145.783 615.282 140.684 612.116 136.287C608.951 131.715 604.994 128.11 600.246 125.472C595.498 122.659 590.047 121.252 583.892 121.252C571.23 121.252 561.646 125.648 555.14 134.441C548.809 143.234 545.644 154.928 545.644 169.524C545.644 176.382 546.435 182.801 548.018 188.78C549.776 194.583 552.326 199.594 555.667 203.815C559.009 208.035 562.965 211.377 567.537 213.839C572.285 216.301 577.737 217.532 583.892 217.532C590.75 217.532 596.553 216.125 601.301 213.311C606.049 210.497 609.918 206.892 612.908 202.496C616.073 197.924 618.271 192.824 619.502 187.197C620.909 181.394 621.612 175.503 621.612 169.524Z" fill="#05184F"/>
<path d="M276.529 101.205H304.754V127.583H305.281C306.161 123.89 307.831 120.285 310.293 116.768C312.931 113.251 316.008 110.085 319.525 107.272C323.218 104.282 327.263 101.908 331.659 100.15C336.056 98.391 340.54 97.5117 345.112 97.5117C348.629 97.5117 351.003 97.5996 352.234 97.7755C353.641 97.9513 355.048 98.1272 356.455 98.3031V127.319C354.344 126.967 352.146 126.703 349.86 126.527C347.75 126.176 345.64 126 343.529 126C338.43 126 333.594 127.055 329.021 129.165C324.625 131.1 320.756 134.089 317.415 138.134C314.074 142.003 311.436 146.839 309.502 152.642C307.567 158.445 306.6 165.127 306.6 172.689V237.579H276.529V101.205Z" fill="#0D99FF"/>
<path d="M213.694 49.2402H243.765V77.7285H213.694V49.2402ZM213.694 101.205H243.765V237.579H213.694V101.205Z" fill="#0D99FF"/>
<path d="M62.665 101.206H95.3737L129.929 205.927H130.456L163.693 101.206H194.819L146.019 237.58H112.256L62.665 101.206Z" fill="#0D99FF"/>
<path d="M430.038 97.5117C436.72 97.5117 443.315 98.2153 449.821 99.6221C456.328 101.029 462.132 103.315 467.231 106.48C472.507 109.646 476.727 113.778 479.893 118.878C483.058 123.802 484.641 129.868 484.641 137.078V192.617H484.435V241.026C482.765 241.189 481.339 241.271 480.156 241.271C474.002 241.271 468.902 240.041 464.857 237.579C460.813 235.117 458.174 230.808 456.943 224.653C450.964 230.456 443.579 234.677 434.786 237.314C426.169 239.952 417.817 241.271 409.728 241.271C403.573 241.271 397.681 240.392 392.054 238.634C386.427 237.051 381.415 234.677 377.019 231.512C372.798 228.171 369.369 224.038 366.731 219.114C364.27 214.015 363.038 208.123 363.038 201.44C363.038 193 364.533 186.142 367.522 180.866C370.688 175.591 374.732 171.458 379.656 168.469C384.756 165.479 390.383 163.369 396.538 162.138C402.869 160.731 409.2 159.676 415.53 158.973C420.982 157.918 426.169 157.214 431.093 156.862C436.017 156.335 440.326 155.543 444.019 154.488C447.887 153.433 450.877 151.85 452.987 149.74C455.273 147.454 456.416 144.113 456.416 139.717C456.416 135.848 455.449 132.683 453.515 130.221C451.756 127.759 449.47 125.912 446.656 124.681C444.018 123.274 441.029 122.395 437.688 122.043C434.346 121.515 431.181 121.252 428.191 121.252C419.751 121.252 412.805 123.01 407.354 126.527C401.902 130.044 398.825 135.496 398.121 142.882H368.05C368.577 134.089 370.688 126.791 374.381 120.988C378.074 115.185 382.734 110.525 388.361 107.008C394.164 103.491 400.671 101.029 407.881 99.6221C415.091 98.2153 422.476 97.5117 430.038 97.5117ZM454.569 169.26C449.997 172.249 444.37 174.095 437.688 174.799C431.005 175.326 424.323 176.206 417.641 177.437C414.475 177.964 411.398 178.755 408.408 179.811C405.419 180.69 402.781 182.009 400.495 183.768C398.209 185.35 396.362 187.549 394.955 190.362C393.724 193 393.109 196.253 393.109 200.122C393.109 203.463 394.076 206.276 396.011 208.562C397.945 210.849 400.231 212.696 402.869 214.103C405.683 215.333 408.672 216.213 411.837 216.74C415.178 217.268 418.168 217.531 420.806 217.531C424.147 217.531 427.752 217.092 431.621 216.213C435.49 215.334 439.094 213.839 442.436 211.729C445.953 209.618 448.855 206.98 451.141 203.814C453.427 200.473 454.569 196.429 454.569 191.681V169.26Z" fill="#0D99FF"/>
<path d="M740.279 97.5117C746.962 97.5117 753.557 98.2152 760.063 99.6221C766.57 101.029 772.373 103.315 777.473 106.48C782.748 109.646 786.968 113.778 790.134 118.878C793.299 123.802 794.882 129.868 794.882 137.078V192.617H794.677V241.026C793.007 241.189 791.58 241.271 790.397 241.271C784.243 241.271 779.143 240.041 775.099 237.579C771.054 235.117 768.417 230.808 767.186 224.653C761.207 230.456 753.82 234.677 745.027 237.314C736.411 239.952 728.058 241.271 719.969 241.271C713.814 241.271 707.922 240.392 702.295 238.634C696.668 237.051 691.656 234.677 687.26 231.512C683.039 228.171 679.61 224.038 676.973 219.114C674.511 214.015 673.279 208.123 673.279 201.44C673.279 193 674.774 186.142 677.764 180.866C680.929 175.591 684.974 171.458 689.897 168.469C694.997 165.479 700.625 163.369 706.779 162.138C713.11 160.731 719.441 159.676 725.771 158.973C731.223 157.918 736.411 157.214 741.335 156.862C746.259 156.335 750.567 155.543 754.26 154.488C758.128 153.433 761.118 151.85 763.229 149.74C765.515 147.454 766.657 144.113 766.657 139.717C766.657 135.848 765.69 132.683 763.756 130.221C761.997 127.759 759.711 125.912 756.897 124.681C754.26 123.274 751.271 122.395 747.93 122.043C744.589 121.515 741.423 121.252 738.434 121.252C729.993 121.252 723.046 123.01 717.595 126.527C712.143 130.044 709.066 135.496 708.362 142.882H678.291C678.819 134.089 680.929 126.791 684.622 120.988C688.315 115.185 692.975 110.525 698.603 107.008C704.406 103.491 710.912 101.029 718.122 99.6221C725.332 98.2153 732.718 97.5117 740.279 97.5117ZM764.812 169.26C760.239 172.249 754.612 174.095 747.93 174.799C741.247 175.326 734.564 176.206 727.882 177.437C724.717 177.964 721.639 178.755 718.649 179.811C715.66 180.69 713.022 182.009 710.736 183.768C708.45 185.35 706.604 187.549 705.197 190.362C703.966 193 703.351 196.253 703.351 200.122C703.351 203.463 704.318 206.276 706.252 208.562C708.186 210.849 710.473 212.696 713.11 214.103C715.924 215.333 718.914 216.213 722.079 216.74C725.42 217.268 728.41 217.531 731.048 217.531C734.389 217.531 737.994 217.092 741.862 216.213C745.731 215.334 749.337 213.839 752.678 211.729C756.195 209.618 759.096 206.98 761.382 203.814C763.668 200.473 764.812 196.429 764.812 191.681V169.26Z" fill="#05184F"/>
<path d="M1016.85 306.321C1016.85 308.348 1017.11 310.159 1017.63 311.755C1018.19 313.307 1018.94 314.622 1019.89 315.7C1020.84 316.735 1021.94 317.533 1023.19 318.093C1024.49 318.654 1025.84 318.934 1027.27 318.934C1028.69 318.934 1030.03 318.654 1031.28 318.093C1032.57 317.533 1033.69 316.735 1034.64 315.7C1035.59 314.622 1036.32 313.307 1036.84 311.755C1037.4 310.159 1037.68 308.348 1037.68 306.321C1037.68 304.295 1037.4 302.505 1036.84 300.953C1036.32 299.357 1035.59 298.021 1034.64 296.943C1033.69 295.865 1032.57 295.045 1031.28 294.485C1030.03 293.924 1028.69 293.644 1027.27 293.644C1025.84 293.644 1024.49 293.924 1023.19 294.485C1021.94 295.045 1020.84 295.865 1019.89 296.943C1018.94 298.021 1018.19 299.357 1017.63 300.953C1017.11 302.505 1016.85 304.295 1016.85 306.321ZM1011.03 306.321C1011.03 303.864 1011.38 301.578 1012.07 299.465C1012.76 297.309 1013.79 295.455 1015.17 293.903C1016.55 292.307 1018.25 291.057 1020.28 290.151C1022.31 289.246 1024.64 288.793 1027.27 288.793C1029.94 288.793 1032.27 289.246 1034.25 290.151C1036.28 291.057 1037.98 292.307 1039.36 293.903C1040.74 295.455 1041.78 297.309 1042.47 299.465C1043.16 301.578 1043.5 303.864 1043.5 306.321C1043.5 308.779 1043.16 311.065 1042.47 313.178C1041.78 315.29 1040.74 317.145 1039.36 318.74C1037.98 320.292 1036.28 321.521 1034.25 322.427C1032.27 323.289 1029.94 323.721 1027.27 323.721C1024.64 323.721 1022.31 323.289 1020.28 322.427C1018.25 321.521 1016.55 320.292 1015.17 318.74C1013.79 317.145 1012.76 315.29 1012.07 313.178C1011.38 311.065 1011.03 308.779 1011.03 306.321Z" fill="#05184F"/>
<path d="M1000.08 289.569H1006.74V294.42H1000.08V315.183C1000.08 315.83 1000.12 316.347 1000.21 316.735C1000.34 317.123 1000.55 317.425 1000.85 317.641C1001.15 317.856 1001.56 318.007 1002.08 318.094C1002.64 318.137 1003.35 318.158 1004.22 318.158H1006.74V323.009H1002.53C1001.11 323.009 999.882 322.923 998.848 322.751C997.856 322.535 997.036 322.168 996.39 321.651C995.786 321.134 995.333 320.401 995.031 319.452C994.73 318.503 994.579 317.253 994.579 315.7V294.42H988.887V289.569H994.579V279.544H1000.08V289.569Z" fill="#05184F"/>
<path d="M956.501 289.569H961.675V294.873H961.805C964.09 290.82 967.712 288.793 972.671 288.793C974.87 288.793 976.703 289.095 978.169 289.698C979.635 290.302 980.821 291.143 981.726 292.221C982.632 293.299 983.257 294.593 983.602 296.102C983.99 297.568 984.184 299.207 984.184 301.018V323.009H978.686V300.371C978.686 298.301 978.083 296.662 976.875 295.455C975.668 294.248 974.008 293.644 971.895 293.644C970.213 293.644 968.747 293.903 967.497 294.42C966.289 294.938 965.276 295.671 964.457 296.619C963.637 297.568 963.012 298.689 962.581 299.983C962.193 301.233 961.999 302.613 961.999 304.122V323.009H956.501V289.569Z" fill="#05184F"/>
<path d="M944.984 303.087C944.897 301.794 944.595 300.565 944.078 299.401C943.604 298.236 942.935 297.245 942.073 296.425C941.254 295.563 940.262 294.895 939.098 294.42C937.976 293.903 936.726 293.644 935.346 293.644C933.923 293.644 932.63 293.903 931.465 294.42C930.344 294.895 929.374 295.563 928.555 296.425C927.735 297.288 927.089 298.301 926.614 299.465C926.14 300.586 925.86 301.794 925.773 303.087H944.984ZM950.287 312.401C949.554 316.153 947.937 318.977 945.436 320.875C942.935 322.772 939.788 323.721 935.993 323.721C933.319 323.721 930.991 323.289 929.007 322.427C927.067 321.564 925.428 320.357 924.092 318.805C922.755 317.252 921.742 315.398 921.052 313.242C920.405 311.086 920.038 308.736 919.952 306.192C919.952 303.648 920.34 301.319 921.116 299.207C921.893 297.094 922.971 295.261 924.35 293.709C925.773 292.156 927.434 290.949 929.331 290.087C931.271 289.224 933.384 288.793 935.67 288.793C938.645 288.793 941.103 289.418 943.043 290.669C945.027 291.876 946.601 293.428 947.765 295.326C948.972 297.223 949.792 299.293 950.223 301.535C950.697 303.777 950.891 305.912 950.805 307.938H925.773C925.73 309.405 925.903 310.806 926.291 312.143C926.679 313.436 927.304 314.601 928.167 315.635C929.029 316.627 930.129 317.425 931.465 318.029C932.802 318.632 934.376 318.934 936.187 318.934C938.516 318.934 940.413 318.395 941.879 317.317C943.388 316.239 944.38 314.601 944.854 312.401H950.287Z" fill="#05184F"/>
<path d="M866.617 289.569H871.792V294.485H871.921C874.422 290.69 878.023 288.793 882.723 288.793C884.792 288.793 886.668 289.224 888.35 290.087C890.032 290.949 891.217 292.415 891.907 294.485C893.028 292.674 894.495 291.272 896.306 290.281C898.16 289.289 900.186 288.793 902.386 288.793C904.067 288.793 905.576 288.987 906.913 289.375C908.293 289.72 909.457 290.281 910.406 291.057C911.398 291.833 912.152 292.846 912.67 294.097C913.23 295.304 913.511 296.77 913.511 298.495V323.009H908.013V301.082C908.013 300.047 907.927 299.077 907.754 298.172C907.582 297.266 907.258 296.49 906.784 295.843C906.31 295.153 905.641 294.614 904.779 294.226C903.959 293.838 902.881 293.644 901.545 293.644C898.828 293.644 896.694 294.42 895.141 295.973C893.589 297.525 892.813 299.595 892.813 302.182V323.009H887.315V301.082C887.315 300.004 887.207 299.013 886.992 298.107C886.819 297.201 886.496 296.425 886.021 295.778C885.547 295.089 884.9 294.571 884.081 294.226C883.305 293.838 882.291 293.644 881.041 293.644C879.446 293.644 878.066 293.967 876.901 294.614C875.78 295.261 874.853 296.037 874.12 296.943C873.43 297.848 872.913 298.797 872.568 299.789C872.266 300.737 872.115 301.535 872.115 302.182V323.009H866.617V289.569Z" fill="#05184F"/>
<path d="M861.503 322.88C860.555 323.44 859.239 323.721 857.558 323.721C856.135 323.721 854.992 323.332 854.13 322.556C853.31 321.737 852.901 320.422 852.901 318.611C851.391 320.422 849.623 321.737 847.597 322.556C845.613 323.332 843.457 323.721 841.129 323.721C839.62 323.721 838.175 323.548 836.795 323.203C835.458 322.858 834.294 322.319 833.302 321.586C832.311 320.853 831.513 319.904 830.909 318.74C830.349 317.533 830.068 316.088 830.068 314.407C830.068 312.509 830.392 310.957 831.039 309.75C831.685 308.542 832.526 307.572 833.561 306.839C834.639 306.063 835.847 305.481 837.183 305.092C838.563 304.704 839.965 304.381 841.387 304.122C842.897 303.82 844.32 303.605 845.656 303.475C847.036 303.303 848.244 303.087 849.279 302.829C850.313 302.527 851.133 302.117 851.736 301.6C852.34 301.039 852.642 300.241 852.642 299.207C852.642 297.999 852.405 297.029 851.93 296.296C851.499 295.563 850.917 295.002 850.184 294.614C849.494 294.226 848.696 293.967 847.791 293.838C846.928 293.709 846.066 293.644 845.204 293.644C842.875 293.644 840.935 294.097 839.382 295.002C837.83 295.865 836.989 297.525 836.86 299.983H831.362C831.448 297.913 831.879 296.167 832.656 294.744C833.432 293.321 834.467 292.178 835.76 291.316C837.054 290.41 838.52 289.763 840.159 289.375C841.84 288.987 843.63 288.793 845.527 288.793C847.036 288.793 848.524 288.901 849.99 289.116C851.499 289.332 852.858 289.785 854.065 290.475C855.272 291.121 856.242 292.049 856.976 293.256C857.709 294.463 858.075 296.037 858.075 297.978V315.183C858.075 316.476 858.14 317.425 858.269 318.029C858.442 318.632 858.959 318.934 859.821 318.934C860.296 318.934 860.856 318.826 861.503 318.611V322.88ZM852.577 305.739C851.887 306.257 850.982 306.645 849.861 306.904C848.74 307.119 847.554 307.313 846.303 307.486C845.096 307.615 843.867 307.788 842.616 308.003C841.366 308.176 840.245 308.477 839.253 308.909C838.261 309.34 837.442 309.965 836.795 310.784C836.191 311.561 835.89 312.639 835.89 314.018C835.89 314.924 836.062 315.7 836.407 316.347C836.795 316.951 837.269 317.446 837.83 317.835C838.434 318.223 839.124 318.503 839.9 318.675C840.676 318.848 841.495 318.934 842.358 318.934C844.169 318.934 845.721 318.697 847.015 318.223C848.308 317.705 849.365 317.08 850.184 316.347C851.003 315.571 851.607 314.751 851.995 313.889C852.383 312.984 852.577 312.143 852.577 311.367V305.739Z" fill="#05184F"/>
<path d="M795.938 289.569H801.113V294.873H801.242C803.528 290.82 807.15 288.793 812.109 288.793C814.308 288.793 816.14 289.095 817.606 289.698C819.073 290.302 820.258 291.143 821.164 292.221C822.069 293.299 822.695 294.593 823.04 296.102C823.428 297.568 823.622 299.207 823.622 301.018V323.009H818.124V300.371C818.124 298.301 817.52 296.662 816.313 295.455C815.106 294.248 813.445 293.644 811.332 293.644C809.651 293.644 808.185 293.903 806.934 294.42C805.727 294.938 804.713 295.671 803.894 296.619C803.075 297.568 802.45 298.689 802.018 299.983C801.63 301.233 801.436 302.613 801.436 304.122V323.009H795.938V289.569Z" fill="#05184F"/>
<path d="M762.806 306.321C762.806 308.348 763.064 310.159 763.582 311.755C764.142 313.307 764.897 314.622 765.846 315.7C766.794 316.735 767.894 317.533 769.144 318.093C770.438 318.654 771.796 318.934 773.219 318.934C774.642 318.934 775.979 318.654 777.229 318.093C778.523 317.533 779.644 316.735 780.593 315.7C781.541 314.622 782.275 313.307 782.792 311.755C783.353 310.159 783.633 308.348 783.633 306.321C783.633 304.295 783.353 302.505 782.792 300.953C782.275 299.357 781.541 298.021 780.593 296.943C779.644 295.865 778.523 295.045 777.229 294.485C775.979 293.924 774.642 293.644 773.219 293.644C771.796 293.644 770.438 293.924 769.144 294.485C767.894 295.045 766.794 295.865 765.846 296.943C764.897 298.021 764.142 299.357 763.582 300.953C763.064 302.505 762.806 304.295 762.806 306.321ZM756.984 306.321C756.984 303.864 757.329 301.578 758.019 299.465C758.709 297.309 759.744 295.455 761.124 293.903C762.504 292.307 764.207 291.057 766.234 290.151C768.26 289.246 770.589 288.793 773.219 288.793C775.893 288.793 778.221 289.246 780.205 290.151C782.231 291.057 783.935 292.307 785.314 293.903C786.694 295.455 787.729 297.309 788.419 299.465C789.109 301.578 789.454 303.864 789.454 306.321C789.454 308.779 789.109 311.065 788.419 313.178C787.729 315.29 786.694 317.145 785.314 318.74C783.935 320.292 782.231 321.521 780.205 322.427C778.221 323.289 775.893 323.721 773.219 323.721C770.589 323.721 768.26 323.289 766.234 322.427C764.207 321.521 762.504 320.292 761.124 318.74C759.744 317.145 758.709 315.29 758.019 313.178C757.329 311.065 756.984 308.779 756.984 306.321Z" fill="#05184F"/>
<path d="M750.278 283.554H744.78V276.827H750.278V283.554ZM744.78 289.569H750.278V323.009H744.78V289.569Z" fill="#05184F"/>
<path d="M732.419 300.306C731.988 298.193 731.083 296.555 729.703 295.39C728.323 294.226 726.469 293.644 724.14 293.644C722.157 293.644 720.496 294.011 719.16 294.744C717.823 295.477 716.745 296.447 715.926 297.654C715.15 298.862 714.589 300.263 714.244 301.858C713.899 303.411 713.727 305.028 713.727 306.71C713.727 308.262 713.899 309.771 714.244 311.237C714.632 312.703 715.214 314.018 715.99 315.183C716.767 316.304 717.78 317.209 719.03 317.899C720.281 318.589 721.768 318.934 723.493 318.934C726.21 318.934 728.323 318.223 729.832 316.8C731.384 315.377 732.333 313.372 732.678 310.784H738.305C737.701 314.924 736.149 318.115 733.648 320.357C731.19 322.599 727.827 323.721 723.558 323.721C721.014 323.721 718.75 323.311 716.767 322.492C714.826 321.672 713.188 320.508 711.851 318.999C710.557 317.49 709.565 315.7 708.875 313.63C708.229 311.517 707.905 309.21 707.905 306.71C707.905 304.209 708.229 301.88 708.875 299.724C709.522 297.525 710.492 295.628 711.786 294.032C713.123 292.394 714.783 291.121 716.767 290.216C718.75 289.267 721.057 288.793 723.687 288.793C725.585 288.793 727.353 289.03 728.991 289.504C730.673 289.936 732.139 290.626 733.389 291.574C734.683 292.523 735.74 293.73 736.559 295.196C737.378 296.619 737.896 298.323 738.111 300.306H732.419Z" fill="#05184F"/>
<path d="M704.6 322.88C703.651 323.44 702.336 323.721 700.654 323.721C699.231 323.721 698.089 323.332 697.226 322.556C696.407 321.737 695.997 320.422 695.997 318.611C694.488 320.422 692.72 321.737 690.693 322.556C688.71 323.332 686.554 323.721 684.225 323.721C682.716 323.721 681.272 323.548 679.892 323.203C678.555 322.858 677.391 322.319 676.399 321.586C675.407 320.853 674.61 319.904 674.006 318.74C673.445 317.533 673.165 316.088 673.165 314.407C673.165 312.509 673.488 310.957 674.135 309.75C674.782 308.542 675.623 307.572 676.658 306.839C677.736 306.063 678.943 305.481 680.28 305.092C681.66 304.704 683.061 304.381 684.484 304.122C685.993 303.82 687.416 303.605 688.753 303.475C690.133 303.303 691.34 303.087 692.375 302.829C693.41 302.527 694.229 302.117 694.833 301.6C695.437 301.039 695.739 300.241 695.739 299.207C695.739 297.999 695.501 297.029 695.027 296.296C694.596 295.563 694.014 295.002 693.281 294.614C692.591 294.226 691.793 293.967 690.888 293.838C690.025 293.709 689.163 293.644 688.3 293.644C685.972 293.644 684.031 294.097 682.479 295.002C680.927 295.865 680.086 297.525 679.957 299.983H674.459C674.545 297.913 674.976 296.167 675.752 294.744C676.528 293.321 677.563 292.178 678.857 291.316C680.151 290.41 681.617 289.763 683.255 289.375C684.937 288.987 686.726 288.793 688.624 288.793C690.133 288.793 691.621 288.901 693.087 289.116C694.596 289.332 695.954 289.785 697.162 290.475C698.369 291.121 699.339 292.049 700.072 293.256C700.805 294.463 701.172 296.037 701.172 297.978V315.183C701.172 316.476 701.236 317.425 701.366 318.029C701.538 318.632 702.056 318.934 702.918 318.934C703.392 318.934 703.953 318.826 704.6 318.611V322.88ZM695.674 305.739C694.984 306.257 694.078 306.645 692.957 306.904C691.836 307.119 690.65 307.313 689.4 307.486C688.193 307.615 686.964 307.788 685.713 308.003C684.463 308.176 683.341 308.477 682.35 308.909C681.358 309.34 680.539 309.965 679.892 310.784C679.288 311.561 678.986 312.639 678.986 314.018C678.986 314.924 679.159 315.7 679.504 316.347C679.892 316.951 680.366 317.446 680.927 317.835C681.53 318.223 682.22 318.503 682.996 318.675C683.773 318.848 684.592 318.934 685.454 318.934C687.265 318.934 688.818 318.697 690.111 318.223C691.405 317.705 692.461 317.08 693.281 316.347C694.1 315.571 694.704 314.751 695.092 313.889C695.48 312.984 695.674 312.143 695.674 311.367V305.739Z" fill="#05184F"/>
<path d="M662.208 289.569H668.87V294.42H662.208V315.183C662.208 315.83 662.251 316.347 662.338 316.735C662.467 317.123 662.683 317.425 662.984 317.641C663.286 317.856 663.696 318.007 664.213 318.094C664.774 318.137 665.485 318.158 666.348 318.158H668.87V323.009H664.666C663.243 323.009 662.014 322.923 660.979 322.751C659.988 322.535 659.168 322.168 658.522 321.651C657.918 321.134 657.465 320.401 657.163 319.452C656.861 318.503 656.71 317.253 656.71 315.7V294.42H651.019V289.569H656.71V279.544H662.208V289.569Z" fill="#05184F"/>
<path d="M625.599 312.466C625.643 313.673 625.923 314.708 626.44 315.571C626.958 316.39 627.626 317.058 628.445 317.576C629.308 318.05 630.256 318.395 631.291 318.611C632.369 318.826 633.469 318.934 634.59 318.934C635.452 318.934 636.358 318.869 637.307 318.74C638.255 318.611 639.118 318.374 639.894 318.029C640.713 317.684 641.381 317.188 641.899 316.541C642.416 315.851 642.675 314.989 642.675 313.954C642.675 312.531 642.136 311.453 641.058 310.72C639.98 309.987 638.622 309.405 636.983 308.973C635.388 308.499 633.641 308.089 631.744 307.744C629.847 307.356 628.079 306.839 626.44 306.192C624.845 305.502 623.508 304.553 622.43 303.346C621.352 302.139 620.813 300.457 620.813 298.301C620.813 296.619 621.18 295.175 621.913 293.967C622.689 292.76 623.659 291.79 624.823 291.057C626.031 290.281 627.367 289.72 628.833 289.375C630.343 288.987 631.83 288.793 633.296 288.793C635.194 288.793 636.94 288.965 638.536 289.31C640.131 289.612 641.532 290.173 642.74 290.992C643.99 291.768 644.982 292.846 645.715 294.226C646.448 295.563 646.879 297.245 647.009 299.271H641.511C641.425 298.193 641.144 297.309 640.67 296.619C640.196 295.886 639.592 295.304 638.859 294.873C638.126 294.442 637.307 294.14 636.401 293.967C635.539 293.752 634.655 293.644 633.749 293.644C632.93 293.644 632.089 293.709 631.227 293.838C630.407 293.967 629.653 294.205 628.963 294.55C628.273 294.851 627.712 295.283 627.281 295.843C626.85 296.361 626.634 297.051 626.634 297.913C626.634 298.862 626.958 299.659 627.605 300.306C628.294 300.91 629.157 301.427 630.192 301.858C631.227 302.247 632.391 302.592 633.684 302.893C634.978 303.152 636.272 303.432 637.565 303.734C638.945 304.036 640.282 304.403 641.576 304.834C642.912 305.265 644.077 305.847 645.068 306.58C646.103 307.27 646.922 308.154 647.526 309.232C648.173 310.31 648.496 311.647 648.496 313.242C648.496 315.269 648.065 316.951 647.203 318.287C646.383 319.624 645.284 320.702 643.904 321.521C642.567 322.341 641.037 322.901 639.312 323.203C637.63 323.548 635.948 323.721 634.267 323.721C632.412 323.721 630.645 323.526 628.963 323.138C627.281 322.75 625.793 322.125 624.5 321.263C623.206 320.357 622.171 319.193 621.395 317.77C620.619 316.304 620.188 314.536 620.102 312.466H625.599Z" fill="#05184F"/>
<path d="M610.713 303.087C610.627 301.794 610.325 300.565 609.808 299.401C609.333 298.236 608.665 297.245 607.802 296.425C606.983 295.563 605.991 294.895 604.827 294.42C603.706 293.903 602.455 293.644 601.076 293.644C599.653 293.644 598.359 293.903 597.195 294.42C596.074 294.895 595.103 295.563 594.284 296.425C593.465 297.288 592.818 298.301 592.344 299.465C591.869 300.586 591.589 301.794 591.503 303.087H610.713ZM616.017 312.401C615.284 316.153 613.667 318.977 611.166 320.875C608.665 322.772 605.517 323.721 601.722 323.721C599.049 323.721 596.72 323.289 594.737 322.427C592.797 321.564 591.158 320.357 589.821 318.805C588.484 317.252 587.471 315.398 586.781 313.242C586.134 311.086 585.768 308.736 585.682 306.192C585.682 303.648 586.07 301.319 586.846 299.207C587.622 297.094 588.7 295.261 590.08 293.709C591.503 292.156 593.163 290.949 595.06 290.087C597.001 289.224 599.114 288.793 601.399 288.793C604.374 288.793 606.832 289.418 608.773 290.669C610.756 291.876 612.33 293.428 613.494 295.326C614.702 297.223 615.521 299.293 615.952 301.535C616.427 303.777 616.621 305.912 616.534 307.938H591.503C591.46 309.405 591.632 310.806 592.02 312.143C592.408 313.436 593.034 314.601 593.896 315.635C594.758 316.627 595.858 317.425 597.195 318.029C598.532 318.632 600.105 318.934 601.916 318.934C604.245 318.934 606.142 318.395 607.608 317.317C609.118 316.239 610.109 314.601 610.584 312.401H616.017Z" fill="#05184F"/>
</g>
<defs>
<clipPath id="clip0_6326_18059">
<rect width="1128" height="376" fill="white"/>
</clipPath>
</defs>
</svg>
