<svg width="526" height="78" viewBox="0 0 526 78" fill="none" xmlns="http://www.w3.org/2000/svg">
<g clip-path="url(#clip0_6381_28203)">
<mask id="mask0_6381_28203" style="mask-type:luminance" maskUnits="userSpaceOnUse" x="0" y="0" width="526" height="78">
<path d="M525.751 0H0V77.0622H525.751V0Z" fill="white"></path>
</mask>
<g mask="url(#mask0_6381_28203)">
<path d="M444.988 76.1617H472.248L525.751 3.96094H498.491L444.988 76.1617Z" fill="#DA455E"></path>
<path d="M423.367 76.1617H438.974L492.458 3.96094H476.851L423.367 76.1617Z" fill="#A6DBDF"></path>
<path d="M413.66 76.1617H417.585L471.068 3.96094H467.144L413.66 76.1617Z" fill="#29263F"></path>
<path d="M508.292 27.5139L498.487 3.96094L490.676 51.2783L508.292 27.5139Z" fill="#AE374B"></path>
<path d="M525.752 3.96094H498.492V76.1617H525.752V3.96094Z" fill="#29263F"></path>
<path d="M39.7404 57.628H27.6335V33.44C27.8014 31.1035 27.2383 28.7717 26.0128 26.7279C25.4534 25.974 24.6925 25.3696 23.8056 24.9744C22.9186 24.5794 21.9363 24.4073 20.9561 24.4754C19.6281 24.3884 18.2996 24.6391 17.1122 25.2009C15.9249 25.7626 14.9231 26.6143 14.2138 27.6652C12.8038 29.7816 12.1069 33.2889 12.1069 38.1414V57.628H0V16.2213H9.25439L10.8751 21.5124H11.5558C12.7636 19.5646 14.5549 17.9884 16.7098 16.9771C19.1176 15.8728 21.7743 15.3232 24.4569 15.3747C31.1019 15.3747 35.6022 17.3904 37.9577 21.4217H39.0273C40.2489 19.4462 42.086 17.8644 44.2945 16.8864C46.7498 15.8264 49.4345 15.309 52.1391 15.3747C57.1634 15.3747 60.9451 16.574 63.4841 18.9727C66.0235 21.3713 67.3146 25.2313 67.3578 30.5526V57.628H55.2024V33.44C55.3702 31.1035 54.8069 28.7717 53.5816 26.7279C53.022 25.974 52.2612 25.3696 51.3742 24.9744C50.4871 24.5794 49.5051 24.4073 48.525 24.4754C47.2301 24.4076 45.9386 24.6498 44.7726 25.179C43.6066 25.7082 42.6054 26.5068 41.8637 27.4989C40.4051 29.4793 39.6593 32.6086 39.6593 36.9172L39.7404 57.628Z" fill="#29263F"></path>
<path d="M120.194 36.8555C120.194 43.5879 118.286 48.8586 114.472 52.6683C110.658 56.478 105.347 58.3775 98.5405 58.3677C94.5763 58.4542 90.6595 57.5512 87.1951 55.7522C83.9268 54.0046 81.3086 51.3673 79.6912 48.1934C77.8698 44.6388 76.9704 40.7338 77.0654 36.7949C77.0654 30.0222 78.9566 24.7614 82.7383 21.0122C86.5199 17.2631 91.8413 15.3885 98.7023 15.3885C102.662 15.3022 106.576 16.194 110.048 17.9736C113.292 19.6947 115.907 22.2862 117.552 25.4114C119.393 28.9768 120.298 32.8993 120.194 36.8555ZM89.4968 36.8555C89.2734 40.0763 90.0199 43.2916 91.6524 46.1376C92.4211 47.2004 93.4794 48.053 94.7183 48.6082C95.9575 49.1634 97.3324 49.4012 98.7023 49.2972C100.058 49.4033 101.419 49.1693 102.644 48.619C103.87 48.0687 104.915 47.2224 105.672 46.1677C107.286 43.3056 108.021 40.0826 107.795 36.8555C108.024 33.655 107.283 30.4593 105.655 27.6337C104.871 26.5984 103.807 25.7739 102.573 25.2432C101.338 24.7125 99.975 24.4942 98.6212 24.6102C97.2757 24.5024 95.9226 24.7247 94.6972 25.255C93.4722 25.7854 92.4166 26.6054 91.6359 27.6337C90.2099 29.6493 89.4968 32.7232 89.4968 36.8555Z" fill="#29263F"></path>
<path d="M140.76 57.6274L123.84 16.2207H136.498L145.088 39.819C146.013 42.6052 146.632 45.4722 146.935 48.3754H147.178C147.407 45.4922 148.005 42.6448 148.961 39.8947L157.502 16.2963H170.16L153.175 57.6274H140.76Z" fill="#29263F"></path>
<path d="M196.55 58.3675C189.408 58.3675 183.822 56.5281 179.791 52.8498C175.761 49.1711 173.746 43.9607 173.746 37.2181C173.746 30.2744 175.61 24.9127 179.338 21.1334C183.065 17.354 188.203 15.4593 194.751 15.4492C201.028 15.4492 205.891 17.1121 209.338 20.4379C212.784 23.7638 214.535 28.3696 214.589 34.2553V39.7429H186.015C185.952 42.5368 187.049 45.2452 189.079 47.3017C190.157 48.2478 191.434 48.9764 192.828 49.4419C194.222 49.9074 195.704 50.1001 197.182 50.0076C199.735 50.0227 202.281 49.7589 204.767 49.2216C207.339 48.6415 209.837 47.8106 212.222 46.7423V55.4801C210.022 56.4819 207.69 57.2091 205.286 57.642C202.409 58.1643 199.481 58.4074 196.55 58.3675ZM194.832 23.4766C193.714 23.4127 192.594 23.5785 191.553 23.9625C190.511 24.3465 189.572 24.9393 188.803 25.6988C187.219 27.5302 186.336 29.8016 186.291 32.154H203.292C203.412 29.8025 202.572 27.4961 200.942 25.6988C200.155 24.9407 199.201 24.3498 198.147 23.9663C197.092 23.5829 195.962 23.4158 194.832 23.4766Z" fill="#29263F"></path>
<path d="M248.864 58.3692C246.515 58.4621 244.177 58.0305 242.042 57.1103C239.909 56.1898 238.041 54.8076 236.595 53.0782H235.963C236.385 56.525 236.595 58.5405 236.595 59.1251V75.9054H224.488V16.2218H234.342L235.963 21.5885H236.514C237.837 19.6118 239.701 18.0005 241.915 16.9214C244.13 15.8423 246.612 15.3346 249.107 15.4509C251.519 15.361 253.916 15.837 256.08 16.8354C258.243 17.8338 260.103 19.3225 261.49 21.1652C264.45 24.9446 265.936 30.1954 265.947 36.9176C266.033 40.8264 265.323 44.7149 263.856 48.3767C262.698 51.3464 260.637 53.9368 257.924 55.8297C255.27 57.5524 252.097 58.4421 248.864 58.3692ZM245.299 24.476C244.075 24.3877 242.846 24.5767 241.717 25.0268C240.588 25.4769 239.593 26.1748 238.816 27.061C237.438 28.7693 236.725 31.5963 236.66 35.5571V36.7817C236.66 41.2261 237.373 44.3404 238.783 46.336C239.55 47.3133 240.572 48.0916 241.752 48.5971C242.932 49.1022 244.231 49.3179 245.525 49.2234C250.928 49.2234 253.629 45.0508 253.629 36.706C253.848 33.5348 253.154 30.3666 251.619 27.5297C250.967 26.5297 250.032 25.7161 248.917 25.1776C247.803 24.6392 246.551 24.3964 245.299 24.476Z" fill="#29263F"></path>
<path d="M304.147 57.6277L301.813 52.0039H301.489C299.838 54.0972 297.685 55.8006 295.201 56.9776C292.523 57.9934 289.645 58.4673 286.757 58.3682C284.92 58.4617 283.082 58.2085 281.353 57.6242C279.623 57.0396 278.038 56.1359 276.692 54.967C275.412 53.6629 274.427 52.1307 273.798 50.463C273.169 48.7953 272.907 47.0261 273.029 45.2617C273.029 40.8674 274.677 37.6273 277.972 35.541C281.214 33.455 286.238 32.2909 292.883 32.0793L300.582 31.8525V30.0384C300.582 25.8358 298.28 23.7344 293.677 23.7344C289.327 23.921 285.066 24.9507 281.165 26.7579L277.162 19.1236C282.41 16.5995 288.243 15.3172 294.147 15.3896C300.111 15.3896 304.666 16.599 307.843 19.0178C311.019 21.4366 312.607 25.0648 312.607 30.0535V57.6277H304.147ZM300.582 38.4434L295.898 38.5948C293.153 38.4977 290.433 39.1097 288.037 40.3633C287.178 40.9143 286.488 41.6636 286.033 42.5382C285.579 43.4125 285.376 44.3825 285.444 45.3524C285.444 48.527 287.389 50.1292 291.311 50.1292C292.537 50.1867 293.764 50.0154 294.918 49.6262C296.073 49.2367 297.133 48.637 298.037 47.8618C298.893 47.0779 299.561 46.1339 299.997 45.0915C300.433 44.049 300.627 42.9323 300.565 41.8149L300.582 38.4434Z" fill="#29263F"></path>
<path d="M349.836 15.4498C351.212 15.4244 352.586 15.5359 353.936 15.7824L353.012 26.3646C351.845 26.1026 350.647 25.9807 349.447 26.0018C346.172 25.8087 342.94 26.7811 340.403 28.723C339.296 29.7282 338.434 30.9436 337.875 32.2869C337.315 33.6301 337.072 35.0696 337.162 36.5082V57.6274H325.055V16.2208H334.212L336.011 23.19H336.562C337.893 20.9091 339.815 18.9756 342.154 17.5663C344.434 16.1683 347.107 15.4318 349.836 15.4498Z" fill="#29263F"></path>
<path d="M373.629 35.1029L378.897 28.8139L391.327 16.221H404.989L387.357 34.1805L406.059 57.6278H392.089L379.302 40.817L374.099 44.7024V57.5973H361.992V0H374.099V25.6996L373.467 35.1029H373.629Z" fill="#29263F"></path>
</g>
</g>
<defs>
<clipPath id="clip0_6381_28203">
<rect width="525.751" height="77.0622" fill="white"></rect>
</clipPath>
</defs>
</svg>