<svg width="116" height="18" viewBox="0 0 116 18" fill="none" xmlns="http://www.w3.org/2000/svg">
<path d="M98.0961 17.9999H104.106L115.9 0.936035H109.89L98.0961 17.9999Z" fill="white"/>
<path d="M93.3299 17.9999H96.7705L108.561 0.936035H105.12L93.3299 17.9999Z" fill="white"/>
<path d="M91.1897 17.9999H92.0544L103.845 0.936035H102.98L91.1897 17.9999Z" fill="white"/>
<path d="M112.052 6.50253L109.89 0.936035L108.168 12.119L112.052 6.50253Z" fill="white"/>
<path d="M115.9 0.936035H109.89V17.9999H115.9V0.936035Z" fill="white"/>
<path d="M8.76062 13.6199H6.0917V7.90331C6.1287 7.35109 6.00459 6.8 5.73442 6.31697C5.61111 6.13879 5.44338 5.99593 5.24784 5.90256C5.05231 5.80918 4.83578 5.76852 4.61969 5.78461C4.32692 5.76405 4.03406 5.82331 3.77232 5.95607C3.51057 6.08883 3.28975 6.29012 3.13339 6.53848C2.82255 7.03868 2.66892 7.86758 2.66892 9.01446V13.6199H0V3.83384H2.0401L2.39738 5.08433H2.54744C2.81367 4.62401 3.20856 4.25147 3.6836 4.01248C4.2144 3.75147 4.80006 3.6216 5.39142 3.63376C6.85629 3.63376 7.84835 4.11014 8.36761 5.0629H8.60341C8.87269 4.59602 9.2777 4.22217 9.76459 3.99104C10.3058 3.74051 10.8976 3.61824 11.4938 3.63376C12.6014 3.63376 13.4351 3.9172 13.9948 4.4841C14.5546 5.05099 14.8392 5.96325 14.8487 7.2209V13.6199H12.1691V7.90331C12.2061 7.35109 12.082 6.8 11.8118 6.31697C11.6885 6.13879 11.5208 5.99593 11.3253 5.90256C11.1297 5.80918 10.9132 5.76852 10.6971 5.78461C10.4117 5.76859 10.127 5.82583 9.86994 5.9509C9.61292 6.07598 9.39216 6.26472 9.22866 6.49918C8.90711 6.96722 8.74275 7.7068 8.74275 8.72506L8.76062 13.6199Z" fill="white"/>
<path d="M26.4962 8.71066C26.4962 10.3018 26.0758 11.5475 25.235 12.4479C24.3942 13.3482 23.2235 13.7972 21.7229 13.7948C20.849 13.8153 19.9856 13.6019 19.2219 13.1767C18.5014 12.7636 17.9242 12.1404 17.5677 11.3903C17.1662 10.5501 16.9679 9.6273 16.9889 8.69637C16.9889 7.09573 17.4057 5.85238 18.2394 4.96632C19.073 4.08025 20.2461 3.63722 21.7586 3.63722C22.6316 3.61681 23.4944 3.82758 24.2596 4.24817C24.9749 4.65493 25.5512 5.26741 25.9138 6.00601C26.3196 6.84865 26.5192 7.77569 26.4962 8.71066ZM19.7292 8.71066C19.68 9.4719 19.8446 10.2317 20.2044 10.9044C20.374 11.1555 20.6072 11.3571 20.8804 11.4883C21.1535 11.6195 21.4566 11.6757 21.7586 11.6511C22.0574 11.6762 22.3575 11.6209 22.6276 11.4908C22.8978 11.3608 23.1282 11.1607 23.2949 10.9115C23.6508 10.235 23.8127 9.47339 23.763 8.71066C23.8135 7.95431 23.6501 7.19902 23.2914 6.53122C23.1183 6.28654 22.8839 6.09169 22.6118 5.96626C22.3396 5.84083 22.0392 5.78924 21.7408 5.81665C21.4441 5.79117 21.1459 5.84371 20.8757 5.96905C20.6056 6.0944 20.373 6.2882 20.2009 6.53122C19.8864 7.0076 19.7292 7.73408 19.7292 8.71066Z" fill="white"/>
<path d="M31.0302 13.6198L27.3001 3.83374H30.0905L31.9841 9.41095C32.1881 10.0695 32.3246 10.747 32.3914 11.4332H32.445C32.4953 10.7517 32.6273 10.0788 32.838 9.42882L34.7209 3.8516H37.5113L33.767 13.6198H31.0302Z" fill="white"/>
<path d="M43.3279 13.7947C41.7535 13.7947 40.522 13.36 39.6336 12.4906C38.7451 11.6212 38.3009 10.3898 38.3009 8.79626C38.3009 7.15514 38.7118 5.88797 39.5335 4.99476C40.3553 4.10155 41.4879 3.65375 42.9313 3.65137C44.3152 3.65137 45.387 4.04438 46.1469 4.83041C46.9067 5.61643 47.2926 6.70496 47.3045 8.09599V9.39293H41.0055C40.9916 10.0532 41.2336 10.6934 41.6808 11.1794C41.9187 11.403 42.2001 11.5752 42.5074 11.6852C42.8148 11.7952 43.1415 11.8407 43.4672 11.8189C44.0299 11.8225 44.5911 11.7601 45.1393 11.6331C45.7062 11.496 46.2571 11.2997 46.7828 11.0472V13.1123C46.2978 13.3491 45.7836 13.5208 45.2537 13.6232C44.6194 13.7466 43.974 13.8041 43.3279 13.7947ZM42.9492 5.54855C42.7027 5.53344 42.4559 5.57265 42.2262 5.6634C41.9966 5.75415 41.7897 5.89424 41.6201 6.07376C41.271 6.50659 41.0762 7.0434 41.0663 7.59936H44.8142C44.8405 7.04362 44.6554 6.49853 44.2961 6.07376C44.1225 5.89459 43.9124 5.75493 43.6799 5.6643C43.4475 5.57367 43.1982 5.53419 42.9492 5.54855Z" fill="white"/>
<path d="M54.861 13.7949C54.3432 13.8168 53.8277 13.7148 53.3572 13.4973C52.8868 13.2798 52.4751 12.9531 52.1564 12.5444H52.0171C52.11 13.359 52.1564 13.8354 52.1564 13.9735V17.9394H49.4875V3.83377H51.6598L52.0171 5.10213H52.1385C52.4301 4.63494 52.8411 4.25413 53.3292 3.9991C53.8173 3.74407 54.3646 3.62408 54.9146 3.65155C55.4463 3.63032 55.9748 3.74283 56.4517 3.97878C56.9286 4.21473 57.3386 4.56658 57.6443 5.00209C58.2969 5.8953 58.6244 7.13627 58.6268 8.725C58.6458 9.64876 58.4894 10.5677 58.1659 11.4332C57.9107 12.1351 57.4563 12.7473 56.8583 13.1946C56.2732 13.6018 55.5736 13.812 54.861 13.7949ZM54.075 5.78454C53.8052 5.76369 53.5343 5.80835 53.2855 5.91472C53.0367 6.0211 52.8172 6.18604 52.6459 6.3955C52.3422 6.79923 52.185 7.46735 52.1707 8.40344V8.69284C52.1707 9.74326 52.3279 10.4793 52.6387 10.9509C52.8078 11.1819 53.0331 11.3658 53.2932 11.4853C53.5533 11.6047 53.8397 11.6557 54.125 11.6333C55.316 11.6333 55.9115 10.6472 55.9115 8.67498C55.9598 7.9255 55.8068 7.17674 55.4684 6.50626C55.3245 6.26993 55.1184 6.07764 54.8727 5.95038C54.627 5.82312 54.3511 5.76575 54.075 5.78454Z" fill="white"/>
<path d="M67.048 13.6197L66.5335 12.2906H66.4621C66.0982 12.7853 65.6234 13.1879 65.0758 13.4661C64.4856 13.7061 63.8511 13.8182 63.2144 13.7948C62.8095 13.8168 62.4043 13.757 62.0231 13.6189C61.6419 13.4807 61.2924 13.2672 60.9956 12.9909C60.7134 12.6827 60.4964 12.3206 60.3577 11.9264C60.2189 11.5323 60.1613 11.1141 60.1882 10.6971C60.1882 9.6586 60.5514 8.89282 61.2779 8.39976C61.9924 7.90671 63.1 7.6316 64.5649 7.58158L66.262 7.52799V7.09925C66.262 6.106 65.7547 5.60937 64.74 5.60937C63.7809 5.65346 62.8416 5.89682 61.9817 6.32394L61.0992 4.51965C62.2562 3.9231 63.542 3.62005 64.8436 3.63716C66.1584 3.63716 67.1624 3.92299 67.8626 4.49464C68.5629 5.0663 68.913 5.92378 68.913 7.10282V13.6197H67.048ZM66.262 9.08575L65.2294 9.12148C64.6244 9.09855 64.0247 9.24321 63.4966 9.5395C63.3073 9.66965 63.1551 9.84675 63.0549 10.0534C62.9547 10.2601 62.9099 10.4893 62.925 10.7185C62.925 11.4688 63.3537 11.8476 64.2183 11.8476C64.4887 11.8611 64.759 11.8206 65.0136 11.7286C65.2681 11.6366 65.5018 11.4949 65.7011 11.3116C65.8898 11.1264 66.0371 10.9033 66.1332 10.6569C66.2292 10.4105 66.2719 10.1466 66.2584 9.88249L66.262 9.08575Z" fill="white"/>
<path d="M77.1199 3.65147C77.4231 3.64546 77.7262 3.67181 78.0238 3.73007L77.8202 6.23107C77.5629 6.16914 77.2987 6.14032 77.0341 6.14532C76.3122 6.09967 75.5997 6.32949 75.0405 6.78843C74.7965 7.026 74.6064 7.31325 74.4831 7.63072C74.3598 7.94819 74.3062 8.28845 74.3259 8.62845V13.6197H71.657V3.83369H73.6757L74.0723 5.48077H74.1937C74.4871 4.94171 74.9109 4.48476 75.4264 4.15167C75.9291 3.82127 76.5184 3.64721 77.1199 3.65147Z" fill="white"/>
<path d="M82.3648 8.29615L83.526 6.80984L86.2663 3.83366H89.2783L85.391 8.0782L89.5141 13.6197H86.4343L83.6153 9.64668L82.4684 10.5649V13.6125H79.7995V0H82.4684V6.07384L82.3291 8.29615H82.3648Z" fill="white"/>
</svg>
